<?xml version="1.0" encoding="UTF-8"?>
<svg xmlns="http://www.w3.org/2000/svg" xmlns:xlink="http://www.w3.org/1999/xlink" width="24px" height="24px" viewBox="0 0 24 24" version="1.1">
<g id="surface1">
<path style=" stroke:none;fill-rule:nonzero;fill:rgb(0%,0%,0%);fill-opacity:1;" d="M 4.890625 7.566406 L 15.648438 7.566406 C 15.992188 8.40625 16.785156 8.96875 17.707031 8.96875 C 18.945312 8.96875 19.945312 7.988281 19.945312 6.753906 C 19.945312 5.519531 18.945312 4.492188 17.707031 4.492188 C 16.796875 4.492188 16.015625 5.046875 15.667969 5.792969 L 4.890625 5.792969 C 4.421875 5.792969 4.039062 6.183594 4.039062 6.679688 C 4.039062 7.171875 4.421875 7.566406 4.890625 7.566406 Z M 4.890625 7.566406 "/>
<path style=" stroke:none;fill-rule:nonzero;fill:rgb(0%,0%,0%);fill-opacity:1;" d="M 19.109375 16.367188 L 8.300781 16.367188 C 7.953125 15.53125 7.171875 15.039062 6.261719 15.039062 C 5.027344 15.039062 4.027344 16.039062 4.027344 17.273438 C 4.027344 18.511719 5.027344 19.507812 6.261719 19.507812 C 7.183594 19.507812 7.976562 18.886719 8.316406 18.144531 L 19.109375 18.144531 C 19.578125 18.144531 19.960938 17.75 19.960938 17.257812 C 19.960938 16.761719 19.578125 16.367188 19.109375 16.367188 Z M 6.265625 17.992188 C 5.871094 17.992188 5.550781 17.671875 5.550781 17.277344 C 5.550781 16.878906 5.871094 16.558594 6.265625 16.558594 C 6.660156 16.558594 6.980469 16.878906 6.980469 17.277344 C 6.980469 17.671875 6.660156 17.992188 6.265625 17.992188 Z M 6.265625 17.992188 "/>
<path style=" stroke:none;fill-rule:nonzero;fill:rgb(0%,0%,0%);fill-opacity:1;" d="M 4.890625 12.914062 L 9.921875 12.914062 C 10.261719 13.660156 11.054688 14.277344 11.980469 14.277344 C 12.90625 14.277344 13.699219 13.660156 14.039062 12.914062 L 19.121094 12.914062 C 19.589844 12.914062 19.972656 12.460938 19.972656 11.96875 C 19.972656 11.472656 19.589844 11.019531 19.121094 11.019531 L 14.023438 11.019531 C 13.675781 10.277344 12.890625 9.695312 11.980469 9.695312 C 11.070312 9.695312 10.289062 10.277344 9.9375 11.019531 L 4.890625 11.019531 C 4.421875 11.019531 4.039062 11.472656 4.039062 11.96875 C 4.039062 12.460938 4.421875 12.914062 4.890625 12.914062 Z M 4.890625 12.914062 "/>
</g>
</svg>
