<?xml version="1.0" standalone="no"?>
<!DOCTYPE svg PUBLIC "-//W3C//DTD SVG 20010904//EN"
 "http://www.w3.org/TR/2001/REC-SVG-20010904/DTD/svg10.dtd">
<svg version="1.0" xmlns="http://www.w3.org/2000/svg"
 width="700.000000pt" height="700.000000pt" viewBox="0 0 700.000000 700.000000"
 preserveAspectRatio="xMidYMid meet">
<metadata>
Created by potrace 1.14, written by Peter Selinger 2001-2017
</metadata>
<g transform="translate(0.000000,700.000000) scale(0.100000,-0.100000)"
fill="#000000" stroke="none">
<path d="M3130 6984 c-800 -87 -1531 -437 -2106 -1009 -485 -483 -831 -1126
-958 -1781 -55 -285 -61 -348 -61 -694 0 -346 6 -409 61 -694 127 -652 472
-1294 954 -1776 290 -290 577 -495 945 -675 358 -175 685 -275 1085 -330 155
-22 582 -31 747 -16 357 32 727 122 1048 255 126 52 390 190 513 266 803 503
1388 1343 1572 2260 57 282 65 368 65 710 0 342 -8 428 -65 710 -57 286 -146
541 -285 825 -252 515 -594 928 -1050 1270 -185 139 -318 220 -550 335 -509
252 -987 362 -1563 359 -125 -1 -283 -7 -352 -15z m795 -428 c55 -8 156 -27
225 -41 1099 -233 2002 -1076 2315 -2164 130 -454 152 -976 59 -1453 -201
-1038 -952 -1917 -1957 -2292 -332 -124 -687 -186 -1067 -186 -232 0 -404 17
-620 60 -1197 240 -2160 1203 -2400 2400 -50 252 -63 402 -57 690 7 322 40
543 124 820 327 1082 1235 1910 2333 2130 126 25 190 35 350 54 87 10 599 -3
695 -18z"/>
<path d="M1798 4320 c-75 -22 -132 -84 -149 -161 -22 -97 41 -209 133 -237 18
-6 80 -13 138 -17 676 -42 1215 -510 1345 -1170 8 -44 19 -137 24 -207 7 -104
12 -133 31 -162 49 -80 143 -120 227 -97 99 26 153 94 161 199 5 80 -12 251
-39 385 -43 212 -144 455 -265 637 -233 351 -570 610 -963 740 -221 74 -546
119 -643 90z"/>
<path d="M4979 4320 c-374 -36 -733 -187 -1025 -433 -92 -77 -194 -181 -194
-198 0 -5 18 -38 40 -74 48 -78 110 -202 135 -268 10 -26 21 -50 25 -52 4 -2
36 32 70 76 166 210 410 380 669 463 133 43 242 63 399 74 113 8 126 11 165
38 109 77 123 225 31 318 -16 15 -42 35 -59 44 -36 18 -138 23 -256 12z"/>
</g>
</svg>
